<?xml version="1.0" encoding="UTF-8" standalone="no"?><svg width="1024" height="512" viewBox="0 0 1024 512" version="1.1" id="svg1" xml:space="preserve" inkscape:version="1.4 (86a8ad7, 2024-10-11)" sodipodi:docname="logo.svg" xmlns:inkscape="http://www.inkscape.org/namespaces/inkscape" xmlns:sodipodi="http://sodipodi.sourceforge.net/DTD/sodipodi-0.dtd" xmlns="http://www.w3.org/2000/svg" xmlns:svg="http://www.w3.org/2000/svg" xmlns:rdf="http://www.w3.org/1999/02/22-rdf-syntax-ns#" xmlns:cc="http://creativecommons.org/ns#" xmlns:dc="http://purl.org/dc/elements/1.1/"><title id="title1">WOCC SVG Logo</title><sodipodi:namedview id="namedview1" pagecolor="#ffffff" bordercolor="#111111" borderopacity="1" inkscape:showpageshadow="0" inkscape:pageopacity="0" inkscape:pagecheckerboard="1" inkscape:deskcolor="#d1d1d1" inkscape:document-units="px" inkscape:current-layer="svg1" /><defs id="defs1" /><g id="g25" inkscape:label="module"><path id="path25" style="display:inline;opacity:1;fill:none;fill-opacity:1;stroke:#0d7ed3;stroke-width:10;stroke-linecap:round;stroke-linejoin:miter;stroke-dasharray:none;stroke-opacity:1" inkscape:label="cap" d="M 681.49339 265.51 A 29.733185 82.945412 0 0 1 651.98962 338.17129 A 29.733185 82.945412 0 0 1 622.25644 255.22588 A 29.733185 82.945412 0 0 1 651.98962 172.28046 A 29.733185 82.945412 0 0 1 681.4492 243.9992 " /><path id="path24" style="display:inline;opacity:1;fill:none;fill-opacity:1;stroke:#0d7ed3;stroke-width:10;stroke-linecap:round;stroke-linejoin:miter;stroke-dasharray:none;stroke-opacity:1" inkscape:label="inner-right" d="M 621.723 338.05791 C 613.30587 328.00494 598.88858 300.97275 598.88858 255.22588 C 598.88858 209.479 610.24727 189.09162 621.723 172.39384 " /><path id="path23" style="display:inline;opacity:1;fill:none;fill-opacity:1;stroke:#0d7ed3;stroke-width:10;stroke-linecap:round;stroke-linejoin:miter;stroke-dasharray:none;stroke-opacity:1" inkscape:label="inner-left" d="M 517.94312 338.05791 C 499.00544 338.05791 482.25067 301.20654 482.25067 255.45967 C 482.25067 209.71279 499.00544 172.39384 517.94312 172.39384 " /><path id="path21" style="display:inline;opacity:1;fill:none;fill-opacity:1;stroke:#0d7ed3;stroke-width:10;stroke-linecap:round;stroke-linejoin:miter;stroke-dasharray:none;stroke-opacity:1" inkscape:label="inner-bottom" d="M 517.94312 338.05791 L 621.723 338.05791 " /><path id="path22" style="display:inline;opacity:1;fill:none;fill-opacity:1;stroke:#0d7ed3;stroke-width:10;stroke-linecap:round;stroke-linejoin:miter;stroke-dasharray:none;stroke-opacity:1" inkscape:label="inner-top" d="M 517.94312 172.39384 L 621.72258 172.39384 " /><path id="path20" style="display:inline;opacity:1;fill:none;fill-opacity:1;stroke:#0d7ed3;stroke-width:10;stroke-linecap:round;stroke-linejoin:miter;stroke-dasharray:none;stroke-opacity:1" inkscape:label="outter-bottom-right" d="M 699.51449 265.49521 C 697.33197 316.07168 678.94247 353.04078 650.21133 356.21926 " /><path id="path18" style="display:inline;opacity:1;fill:none;fill-opacity:1;stroke:#0d7ed3;stroke-width:10;stroke-linecap:round;stroke-linejoin:miter;stroke-dasharray:none;stroke-opacity:1" inkscape:label="outter-top-right" d="M 652.66613 154.232 C 676.31752 155.53908 696.7583 193.6697 699.43631 243.99066 " /><path id="path17" style="display:inline;opacity:1;fill:none;fill-opacity:1;stroke:#0d7ed3;stroke-width:10;stroke-linecap:round;stroke-linejoin:miter;stroke-dasharray:none;stroke-opacity:1" inkscape:label="outter-left" d="M 516.854 356.21951 C 486.21133 356.2195 461.37054 311.00312 461.37054 255.22588 C 461.37054 199.44864 486.21133 154.23201 516.854 154.232 " /><path id="path16" style="display:inline;opacity:1;fill:none;fill-opacity:1;stroke:#0d7ed3;stroke-width:10;stroke-linecap:round;stroke-linejoin:miter;stroke-dasharray:none;stroke-opacity:1" inkscape:label="outter-bottom" d="M 516.854 356.21951 L 650.21133 356.21926 " /><path id="path15" style="display:inline;opacity:1;fill:none;fill-opacity:1;stroke:#0d7ed3;stroke-width:10;stroke-linecap:round;stroke-linejoin:miter;stroke-dasharray:none;stroke-opacity:1" inkscape:label="outter-top" d="M 516.854 154.23225 L 652.66613 154.232 " /></g><path id="path6" style="display:inline;opacity:1;fill:none;fill-opacity:1;stroke:#0d7ed3;stroke-width:10;stroke-linecap:round;stroke-linejoin:round;stroke-dasharray:none;stroke-opacity:1" d="m 25.483,245.24566 c 0,0 -8.398521,2.89301 -8.182544,10.28676 0.215757,7.38621 8.182544,10.08953 8.182544,10.08953 m 0,0 38.099269,-0.33892 11.931375,-14.27723 c 0,0 7.143148,-75.89398 33.284446,-75.55343 25.40532,0.33096 35.10755,51.60524 37.25199,85.08494 2.15127,33.58647 16.52407,95.42656 55.34544,95.23072 38.72474,-0.19536 49.96347,-55.64475 52.5351,-85.87425 3.29736,-38.76053 11.48842,-93.9822 36.05468,-93.74004 23.86537,0.23525 33.90327,51.61233 35.38654,80.27706 1.3653,26.38484 7.21002,99.84076 57.38108,99.22378 42.64787,-0.52446 52.36492,-90.32315 52.36492,-90.32315 L 461.63576,265.164 M 25.483,245.24566 56.109589,245.01187 c 0,0 8.917263,-92.75607 54.940641,-92.58082 30.22137,0.11508 50.57864,49.28194 52.60274,83.22922 2.00313,33.59563 11.902,100.61364 38.34155,100.0621 22.79368,-0.47549 33.43202,-52.99972 36.00365,-83.22922 3.29736,-38.76053 15.81365,-99.50542 54.23927,-99.36073 36.47095,0.13733 50.48752,59.44847 53.30411,97.02283 2.20516,29.41772 6.6302,86.79735 35.53608,85.80091 33.68154,-1.16107 38.10776,-90.00913 38.10776,-90.00913 l 42.41135,0.0973" inkscape:label="wave" /><path id="path9-8" style="display:inline;fill:none;fill-opacity:1;stroke:#0d7ed3;stroke-width:10;stroke-linecap:butt;stroke-linejoin:round;stroke-dasharray:none;stroke-opacity:1" d="m 805.93881,204.57895 c -1.94645,-8.63098 -14.6604,-26.18649 -31.77478,-26.05381 -27.41575,0.21254 -42.26588,34.49699 -42.09192,74.87521 0.23883,55.45756 26.29982,80.57585 44.14417,78.85452 7.12378,-0.68719 24.40222,-10.85883 30.45714,-24.04798 2.44899,-5.3345 -5.24481,-14.7999 -8.12391,-11.71786 -6.32099,6.76654 -15.64191,17.52966 -23.55404,17.65055 -21.33718,-4.1561 -24.13741,-41.77057 -24.24367,-58.19103 0.22907,-57.09828 20.86779,-58.42637 24.8247,-58.15579 11.25834,0.76986 16.81553,20.41019 22.42664,20.02512 4.5015,-0.30891 9.48744,-6.35802 7.93567,-13.23893 z m 91.3138,10.54792 c -2.3948,-7.47719 -8.87439,-14.39387 -17.50101,-14.76888 -28.56326,1.42712 -37.03062,30.97178 -36.47123,54.70685 1.85727,49.43247 21.18642,56.73332 35.21719,55.37986 7.12378,-0.68719 12.93226,-4.76202 17.53425,-10.4071 2.7514,-3.37503 -0.33349,-11.4448 -4.35692,-12.70975 -5.61961,-1.76679 -7.21066,6.3551 -13.0189,6.69482 -18.9372,-0.87959 -17.21304,-27.44489 -17.14001,-40.82815 0.13678,-34.09545 14.46321,-35.69563 15.66393,-35.76986 4.66948,-0.28866 7.48909,7.32557 12.15708,7.0137 4.71246,-0.31484 9.35621,-4.81359 7.91562,-9.31149 z m -146.35233,28.87714 h 92.47473 m 18.23244,-1e-5 H 941.631 v -16.862 l 51.24766,27.987 -51.24766,30.20376 V 265.495 l -79.96889,-1e-5 m -17.97661,0 -92.67782,1e-5 m -18.51759,0 H 648.363 c 0,0 -5.55044,-3.23991 -5.63699,-10.366 -0.0783,-6.44607 5.63699,-11.125 5.63699,-11.125 v 0 l 84.19936,1e-5" inkscape:label="emit" sodipodi:nodetypes="sssssssssssssssssssssscccccccccccccsccc" /><metadata id="metadata1"><rdf:RDF><cc:Work rdf:about=""><dc:title>WOCC SVG Logo</dc:title><dc:creator><cc:Agent><dc:title>SNRainiar</dc:title></cc:Agent></dc:creator><dc:rights><cc:Agent><dc:title>MIT License</dc:title></cc:Agent></dc:rights><dc:date>2024/10/29</dc:date><dc:relation>https://github.com/SamuNatsu</dc:relation></cc:Work></rdf:RDF></metadata></svg>
